<svg width="16" height="16" viewBox="0 0 16 16" fill="none" xmlns="http://www.w3.org/2000/svg">
<path d="M11 8C11 8.71875 10.9062 9.375 10.7812 10H5.1875C5.0625 9.375 5 8.71875 5 8C5 7.3125 5.0625 6.65625 5.1875 6H10.7812C10.9062 6.65625 11 7.3125 11 8ZM11.8125 6H15.7188C15.9062 6.65625 16 7.3125 16 8C16 8.71875 15.9062 9.375 15.7188 10H11.8125C11.9375 9.375 12 8.71875 12 8C12 7.3125 11.9375 6.65625 11.8125 6ZM15.4062 5H11.5938C11.0625 2.96875 10.0938 1.25 9.28125 0.125C12.0625 0.5625 14.375 2.46875 15.4062 5ZM10.5625 5H5.40625C5.78125 3.75 6.3125 2.65625 6.84375 1.71875C7.25 1.03125 7.65625 0.46875 8 0.0625C8.3125 0.46875 8.71875 1.03125 9.125 1.71875C9.65625 2.625 10.2188 3.75 10.5625 5ZM4.375 5H0.5625C1.59375 2.46875 3.90625 0.5625 6.6875 0.125C5.875 1.25 4.90625 2.96875 4.375 5ZM0.25 6H4.15625C4.0625 6.65625 4 7.3125 4 8C4 8.71875 4.0625 9.375 4.15625 10H0.25C0.0625 9.375 0 8.71875 0 8C0 7.3125 0.0625 6.65625 0.25 6ZM5.40625 11H10.5625C10.1875 12.2812 9.65625 13.375 9.125 14.3125C8.71875 15 8.3125 15.5625 8 15.9688C7.65625 15.5625 7.25 15 6.84375 14.3125C6.3125 13.375 5.78125 12.2812 5.40625 11ZM4.375 11C4.90625 13.0625 5.875 14.75 6.6875 15.9062C3.90625 15.4688 1.59375 13.5625 0.5625 11H4.375ZM15.4062 11C14.375 13.5625 12.0625 15.4688 9.28125 15.9062C10.0938 14.75 11.0625 13.0625 11.5938 11H15.4062Z" fill="black"/>
</svg>
